<svg xmlns="http://www.w3.org/2000/svg" viewBox="0 0 48 48" width="48" height="48">
  <defs>
    <linearGradient id="pinGrad" x1="0%" y1="0%" x2="100%" y2="100%">
      <stop offset="0%" style="stop-color:#ff3366;stop-opacity:1" />
      <stop offset="100%" style="stop-color:#e60023;stop-opacity:1" />
    </linearGradient>
    <filter id="shadow" x="-10%" y="-10%" width="120%" height="120%">
      <feDropShadow dx="0" dy="1" stdDeviation="1.5" flood-color="#e60023" flood-opacity="0.3"/>
    </filter>
  </defs>
  <circle cx="24" cy="24" r="23" fill="url(#pinGrad)" filter="url(#shadow)"/>
  <path d="M24.5 10C18.2 10 13 14.5 13 20.5C13 23.8 14.6 26.7 17 28.5C17 28.5 17.8 25.3 17.6 24.8C16.2 23.5 15.3 21.7 15.3 19.7C15.3 15.8 19.3 12.5 24.2 12.5C28.3 12.5 31.2 15.1 31.2 18.8C31.2 23.1 29 26.5 26 26.5C24.3 26.5 23.1 25.2 23.5 23.5C23.9 21.5 24.7 19.3 24.7 17.9C24.7 16.7 24 15.7 22.6 15.7C21 15.7 19.6 17.3 19.6 19.5C19.6 20.9 20.1 21.8 20.1 21.8L18.2 30.5C17.8 32.2 18 35 18.1 36.2C18.1 36.3 18.3 36.4 18.3 36.3C18.7 35.7 20.6 32.8 21.2 30.5L22.2 26.8C22.9 28 24.5 28.8 26.2 28.8C31.2 28.8 34.8 24.2 34.8 18.5C34.8 13.7 30.5 10 24.5 10Z" fill="white"/>
</svg>
